<svg id="Capa_1" data-name="Capa 1" xmlns="http://www.w3.org/2000/svg" viewBox="0 0 205.11 230.93"><defs><style>.cls-1{fill:#969595;}.cls-2{fill:#ff153c;}.cls-3{fill:#00adca;}</style></defs><path class="cls-1" d="M100.66,195.68c-29.46,0-51.89-13.6-62.66-20.12-3.44-2.09-4.93-6.78-2.85-10.22s6.15-4.79,9.57-2.69c10.45,6.32,30.54,18.5,55.94,18.5,38.16,0,49.59-23.77,52.74-34a7.27,7.27,0,0,1,13.89,4.28C164.09,161.82,149.84,195.68,100.66,195.68Z" transform="translate(-7.23 -6.78)"/><path class="cls-2" d="M108.45,237.71a173.38,173.38,0,0,1-72.31-15.37,10.9,10.9,0,1,1,9-19.84c19.63,8.91,41,12.86,63.47,13.41,46.88,0,81.91-33.33,81.91-63.1V66.4c0-19.79-15-37.83-31.56-37.83H67.59C40.2,28.57,29,43.48,29,80v44.8H55.46a10.9,10.9,0,0,1,0,21.8H18.12a10.9,10.9,0,0,1-10.89-10.9V80c0-48.62,20.31-73.26,60.36-73.26H159c28.42,0,53.35,27.86,53.35,59.62v86.41c0,45.21-48.45,84.88-103.68,84.9Z" transform="translate(-7.23 -6.78)"/><path class="cls-3" d="M157.19,129a10.9,10.9,0,0,1-10.89-10.9v-14c0-31.32-27.23-38.4-32.23-38.4h-2.15c-16.24,0-33.49,11.91-33.49,34a10.9,10.9,0,0,1-21.8,0V54.81a10.9,10.9,0,0,1,21.8,0v.29a56.78,56.78,0,0,1,28.09-10.92,11.38,11.38,0,0,1,2.43-.27h5.12c18.83,0,54,17.65,54,60.19v14A10.9,10.9,0,0,1,157.19,129Z" transform="translate(-7.23 -6.78)"/></svg>