<svg viewBox="-0.003 -293.41895027729095 1172.923 1474.5159502772908" xmlns="http://www.w3.org/2000/svg" fill-rule="evenodd" clip-rule="evenodd" stroke-linejoin="round" stroke-miterlimit="2" width="1659" height="2500"><path d="M308.678 1021.49l19.153 9.576a499.739 499.739 0 0 0 258.244 70.227c279.729-.638 509.563-231.016 509.563-510.744 0-135.187-53.692-265.012-149.169-360.713-95.35-96.69-225.62-151.18-361.383-151.18-278.451 0-507.552 229.133-507.552 507.552 0 2.203 0 4.373.032 6.576a523.81 523.81 0 0 0 76.612 268.14l12.768 19.153-51.074 188.337 192.806-46.925z" fill="#00E676" fill-rule="nonzero"/><path d="M1003.29 172.378C894.597 61.482 745.49-.732 590.225 0h-.99C269.479.001 6.35 263.131 6.35 582.888c0 1.5.032 2.969.032 4.47a616.759 616.759 0 0 0 76.612 290.485L-.003 1181.097l309.32-79.804a569.202 569.202 0 0 0 278.993 70.228c320.939-1.756 584.036-266.385 583.844-587.356.766-154.213-60.044-302.52-168.864-411.787m-413.065 900.186a473.935 473.935 0 0 1-245.476-67.035l-19.153-9.577-184.187 47.883 47.882-181.953-12.768-19.153a484.242 484.242 0 0 1-72.558-254.957c0-265.65 218.599-484.25 484.25-484.25 265.65 0 484.248 218.6 484.248 484.25 0 167.269-86.666 323.11-228.781 411.372a464.838 464.838 0 0 1-251.86 73.42m280.59-354.329l-35.114-15.96s-51.075-22.346-82.996-38.306c-3.192 0-6.384-3.192-9.577-3.192a46.308 46.308 0 0 0-22.345 6.384c-6.799 3.99-3.192 3.192-47.882 54.266-3.032 5.97-9.257 9.705-15.96 9.577h-3.193a24.328 24.328 0 0 1-12.768-6.384l-15.961-6.385a309.91 309.91 0 0 1-92.573-60.65c-6.384-6.385-15.96-12.77-22.345-19.154a357.13 357.13 0 0 1-60.65-76.611l-3.193-6.384a46.475 46.475 0 0 1-6.384-12.769 23.915 23.915 0 0 1 3.192-15.96c2.905-4.789 12.769-15.962 22.345-25.538 9.577-9.576 9.577-15.96 15.961-22.345a39.33 39.33 0 0 0 6.384-31.922 1246.398 1246.398 0 0 0-51.074-121.301 37.099 37.099 0 0 0-22.345-15.961H380.82c-6.384 0-12.768 3.192-19.153 3.192l-3.192 3.192c-6.384 3.192-12.768 9.577-19.153 12.769-6.384 3.192-9.576 12.769-15.96 19.153a162.752 162.752 0 0 0-35.114 98.956 189.029 189.029 0 0 0 15.96 73.42l3.193 9.576a532.111 532.111 0 0 0 118.11 162.8l12.768 12.769a193.037 193.037 0 0 1 25.537 25.537c66.141 57.554 144.7 99.052 229.516 121.302 9.576 3.192 22.345 3.192 31.921 6.384h31.922a118.126 118.126 0 0 0 47.882-12.769c7.82-3.543 15.29-7.82 22.345-12.768l6.384-6.385c6.385-6.384 12.769-9.576 19.153-15.96a84.393 84.393 0 0 0 15.961-19.153c6.129-14.301 10.438-29.304 12.769-44.69V724.62a40.107 40.107 0 0 0-9.577-6.385" fill="#fff" fill-rule="nonzero"/></svg><svg xmlns="http://www.w3.org/2000/svg" height="1em" viewBox="0 0 448 512"><!--! Font Awesome Free 6.4.2 by @fontawesome - https://fontawesome.com License - https://fontawesome.com/license (Commercial License) Copyright 2023 Fonticons, Inc. --><path d="M380.9 97.1C339 55.1 283.2 32 223.9 32c-122.4 0-222 99.6-222 222 0 39.1 10.2 77.3 29.6 111L0 480l117.7-30.9c32.4 17.7 68.9 27 106.1 27h.1c122.3 0 224.1-99.6 224.1-222 0-59.3-25.2-115-67.1-157zm-157 341.6c-33.2 0-65.7-8.9-94-25.7l-6.7-4-69.8 18.3L72 359.2l-4.4-7c-18.5-29.4-28.2-63.3-28.2-98.2 0-101.7 82.8-184.5 184.6-184.5 49.3 0 95.6 19.2 130.4 54.1 34.8 34.9 56.2 81.2 56.1 130.5 0 101.8-84.9 184.6-186.6 184.6zm101.2-138.2c-5.5-2.8-32.8-16.2-37.9-18-5.1-1.9-8.8-2.8-12.5 2.8-3.7 5.6-14.3 18-17.6 21.8-3.2 3.7-6.5 4.2-12 1.4-32.6-16.3-54-29.1-75.5-66-5.7-9.8 5.7-9.1 16.3-30.3 1.8-3.7.9-6.9-.5-9.7-1.4-2.8-12.5-30.1-17.1-41.2-4.5-10.8-9.1-9.3-12.5-9.5-3.2-.2-6.9-.2-10.6-.2-3.7 0-9.7 1.4-14.8 6.9-5.1 5.6-19.4 19-19.4 46.3 0 27.3 19.9 53.7 22.6 57.4 2.8 3.7 39.1 59.7 94.8 83.8 35.2 15.2 49 16.5 66.6 13.9 10.7-1.6 32.8-13.4 37.4-26.4 4.6-13 4.6-24.1 3.2-26.4-1.3-2.5-5-3.9-10.5-6.6z"/></svg>